<svg id="_i_class_fi_fi-sr-physics_i_" data-name="&lt;i class=&quot;fi fi-sr-physics&quot;&gt;&lt;/i&gt;" xmlns="http://www.w3.org/2000/svg" width="35" height="35.002" viewBox="0 0 35 35.002">
  <path id="Path_39" data-name="Path 39" d="M32.908,2.095C29.446-1.368,24.275-.523,17.5,4.574,10.73-.523,5.56-1.369,2.095,2.095S-.523,10.728,4.574,17.5c-5.1,6.772-5.944,11.943-2.48,15.407A6.855,6.855,0,0,0,7.115,35C9.99,35,13.461,33.47,17.5,30.43,21.54,33.47,25.012,35,27.888,35a6.855,6.855,0,0,0,5.02-2.1c3.464-3.464,2.625-8.633-2.48-15.407,5.1-6.774,5.944-11.943,2.48-15.407Zm-5.073.862A4.093,4.093,0,0,1,30.85,4.151c2.547,2.548.665,6.874-2.316,11-1.222-1.441-2.6-2.939-4.169-4.51S21.294,7.69,19.853,6.466C22.621,4.463,25.483,2.957,27.835,2.957ZM26.707,17.5c-1.475,1.779-3.037,3.444-4.4,4.813s-3.027,2.917-4.806,4.392c-1.779-1.475-3.444-3.037-4.806-4.392S9.771,19.281,8.3,17.5c1.475-1.779,3.037-3.445,4.4-4.806s3.026-2.924,4.806-4.4c1.779,1.473,3.444,3.038,4.813,4.4S25.232,15.722,26.707,17.5ZM4.153,4.153a4.084,4.084,0,0,1,3.015-1.2c2.353,0,5.214,1.507,7.983,3.509-1.441,1.224-2.94,2.6-4.513,4.171s-2.946,3.063-4.17,4.51C3.488,11.025,1.6,6.7,4.153,4.153Zm0,26.692C1.606,28.3,3.488,23.97,6.468,19.85c1.224,1.441,2.6,2.939,4.17,4.51s3.063,2.951,4.505,4.173C11.023,31.517,6.7,33.4,4.153,30.85Zm26.692,0c-2.545,2.544-6.87.667-10.99-2.312,1.438-1.222,2.938-2.606,4.505-4.173s2.946-3.063,4.169-4.51c2.987,4.128,4.872,8.454,2.322,11Z" transform="translate(-0.002 -0.003)" fill="#fff"/>
  <circle id="Ellipse_16" data-name="Ellipse 16" cx="3" cy="3" r="3" transform="translate(14.502 14.503)" fill="#fff"/>
</svg>
